HIERARCHY
ROOT Hips
{
	OFFSET -0.001795 -0.223333 0.028219
	CHANNELS 6 Xposition Yposition Zposition Zrotation Yrotation Xrotation 
	JOINT LeftUpLeg
	{
		OFFSET 0.069520 -0.091406 -0.006815
		CHANNELS 3 Zrotation Yrotation Xrotation
		JOINT LeftLeg
		{
			OFFSET 0.034277 -0.375199 -0.004496
			CHANNELS 3 Zrotation Yrotation Xrotation
			JOINT LeftFoot
			{
				OFFSET -0.013596 -0.397961 -0.043693
				CHANNELS 3 Zrotation Yrotation Xrotation
				JOINT LeftToe
				{
					OFFSET 0.026358 -0.055791 0.119288
					CHANNELS 3 Zrotation Yrotation Xrotation
					End Site
					{
						OFFSET 0.000000 0.000000 0.000000
					}
				}
			}
		}
	}
	JOINT RightUpLeg
	{
		OFFSET -0.067670 -0.090522 -0.004320
		CHANNELS 3 Zrotation Yrotation Xrotation
		JOINT RightLeg
		{
			OFFSET -0.038290 -0.382569 -0.008850
			CHANNELS 3 Zrotation Yrotation Xrotation
			JOINT RightFoot
			{
				OFFSET 0.015774 -0.398415 -0.042312
				CHANNELS 3 Zrotation Yrotation Xrotation
				JOINT RightToe
				{
					OFFSET -0.025372 -0.048144 0.123348
					CHANNELS 3 Zrotation Yrotation Xrotation
					End Site
					{
						OFFSET 0.000000 0.000000 0.000000
					}
				}
			}
		}
	}
	JOINT Spine
	{
		OFFSET -0.002533 0.108963 -0.026696
		CHANNELS 3 Zrotation Yrotation Xrotation
		JOINT Spine1
		{
			OFFSET 0.005487 0.135180 0.001092
			CHANNELS 3 Zrotation Yrotation Xrotation
			JOINT Spine2
			{
				OFFSET 0.001457 0.052922 0.025425
				CHANNELS 3 Zrotation Yrotation Xrotation
				JOINT Neck
				{
					OFFSET -0.002778 0.213870 -0.042857
					CHANNELS 3 Zrotation Yrotation Xrotation
					JOINT Head
					{
						OFFSET 0.005152 0.064970 0.051349
						CHANNELS 3 Zrotation Yrotation Xrotation
						End Site
						{
							OFFSET 0.000000 0.000000 0.000000
						}
					}
				}
				JOINT LeftShoulder
				{
					OFFSET 0.078845 0.121749 -0.034090
					CHANNELS 3 Zrotation Yrotation Xrotation
					JOINT LeftArm
					{
						OFFSET 0.090977 0.030469 -0.008868
						CHANNELS 3 Zrotation Yrotation Xrotation
						JOINT LeftForeArm
						{
							OFFSET 0.259612 -0.012772 -0.027456
							CHANNELS 3 Zrotation Yrotation Xrotation
							JOINT LeftHand
							{
								OFFSET 0.249234 0.008986 -0.001171
								CHANNELS 3 Zrotation Yrotation Xrotation
								End Site
								{
									OFFSET 0.000000 0.000000 0.000000
								}
							}
						}
					}
				}
				JOINT RightShoulder
				{
					OFFSET -0.081759 0.118833 -0.038615
					CHANNELS 3 Zrotation Yrotation Xrotation
					JOINT RightArm
					{
						OFFSET -0.096012 0.032551 -0.009143
						CHANNELS 3 Zrotation Yrotation Xrotation
						JOINT RightForeArm
						{
							OFFSET -0.253742 -0.013329 -0.021401
							CHANNELS 3 Zrotation Yrotation Xrotation
							JOINT RightHand
							{
								OFFSET -0.255298 0.007772 -0.005559
								CHANNELS 3 Zrotation Yrotation Xrotation
								End Site
								{
									OFFSET 0.000000 0.000000 0.000000
								}
							}
						}
					}
				}
			}
		}
	}
}
MOTION
Frames: 7
Frame Time: 0.050000
0.114171 0.927879 -0.035127 2.268898 -18.626431 -9.283598 0.456507 0.982694 8.094405 -9.524376 1.673767 1.286872 2.655999 6.599767 5.797008 0.000000 0.000000 0.000000 -15.334062 0.978227 -0.613008 4.156864 0.095444 12.627737 -2.492414 -9.997437 7.915344 0.000000 0.000000 0.000000 3.094783 -0.380637 29.437451 -9.600651 2.769086 -25.912859 -3.277556 7.785764 22.374196 13.829565 -5.011032 -33.873137 0.000000 0.000000 0.000000 -17.792307 -12.023837 5.681621 -40.143254 -10.292229 -3.306462 -14.713974 -25.078806 4.299056 0.000000 0.000000 0.000000 28.238293 7.243172 1.779196 52.189153 20.366735 1.964459 13.246607 30.186199 4.542464 0.000000 0.000000 0.000000 
0.111885 0.927529 -0.038062 2.567328 -19.849485 -9.538654 0.182376 1.022581 8.199959 -9.088153 1.647259 1.645952 2.559817 6.311685 5.378805 0.000000 0.000000 0.000000 -15.604661 1.068873 -0.505881 4.495376 0.054836 12.389051 -3.087833 -11.121643 7.825212 0.000000 0.000000 0.000000 3.244345 -0.300800 29.558613 -9.767105 2.801361 -25.924527 -3.277045 7.942472 22.266392 14.318776 -5.218576 -34.300974 0.000000 0.000000 0.000000 -17.196721 -11.991509 5.727544 -40.249210 -10.504656 -3.260868 -14.697646 -25.401086 4.373292 0.000000 0.000000 0.000000 27.846892 7.286093 1.620947 52.227607 20.947038 2.290498 12.688543 29.245076 4.203536 0.000000 0.000000 0.000000 
0.108813 0.926849 -0.040595 2.689471 -21.270327 -9.814103 0.187245 1.049735 8.248651 -8.805547 1.674206 2.305313 2.735233 6.546901 4.631503 0.000000 0.000000 0.000000 -15.595033 1.144638 -0.387175 4.542518 0.079836 12.371143 -3.345488 -11.512208 7.498536 0.000000 0.000000 0.000000 3.380663 -0.218051 29.342791 -9.738506 2.778115 -25.882139 -3.241476 8.237078 22.246306 14.390079 -5.309570 -34.328096 0.000000 0.000000 0.000000 -16.928424 -11.867641 5.757573 -40.439996 -10.802891 -3.200692 -14.936355 -25.494594 4.463837 0.000000 0.000000 0.000000 27.561323 7.515764 1.569440 52.320546 21.203694 2.471088 12.353188 28.110184 3.902620 0.000000 0.000000 0.000000 
0.104738 0.926109 -0.042843 2.633150 -22.177306 -9.952564 0.592089 1.019954 8.002398 -8.660471 1.727509 3.132576 3.076249 7.184706 4.150619 0.000000 0.000000 0.000000 -15.255694 1.182505 0.160738 4.932455 0.027571 12.139906 -4.001626 -12.488578 6.925816 0.000000 0.000000 0.000000 3.657566 -0.217331 29.100018 -9.638361 2.742689 -25.796636 -3.225581 8.290962 22.070320 14.816422 -5.479384 -34.685113 0.000000 0.000000 0.000000 -16.762437 -11.548184 5.669782 -40.654636 -10.824378 -3.202638 -14.978572 -25.692371 4.527671 0.000000 0.000000 0.000000 27.484716 7.415242 1.322125 52.436346 20.854250 2.394097 12.092919 27.536231 3.722220 0.000000 0.000000 0.000000 
0.099618 0.925936 -0.044736 2.571823 -23.438873 -9.962245 1.215958 0.993833 7.743317 -8.983022 1.879917 3.660598 3.234126 7.474105 4.086443 0.000000 0.000000 0.000000 -14.942722 1.237649 0.576266 5.473186 -0.034306 11.900185 -4.760148 -13.651395 6.386021 0.000000 0.000000 0.000000 4.019335 -0.205836 28.914515 -9.879521 2.788626 -25.967519 -3.312582 8.465812 22.262562 14.990608 -5.573542 -35.031422 0.000000 0.000000 0.000000 -16.870843 -11.698953 5.890272 -40.314327 -10.760461 -3.256930 -14.959649 -26.238757 4.639890 0.000000 0.000000 0.000000 27.926325 7.411801 1.086894 52.243066 20.653978 2.336884 12.011939 26.950509 3.586287 0.000000 0.000000 0.000000 
0.093953 0.925705 -0.047040 2.463996 -24.634947 -9.704021 1.933234 0.939384 7.231499 -9.101724 2.014532 4.464539 3.452360 7.882462 3.687679 0.000000 0.000000 0.000000 -14.399723 1.259760 0.868376 5.825074 -0.065096 11.633238 -5.717836 -15.107612 5.760784 0.000000 0.000000 0.000000 4.410248 -0.226714 28.379674 -10.039854 2.817128 -25.943070 -3.231497 8.714571 22.089400 14.690809 -5.409942 -35.295123 0.000000 0.000000 0.000000 -16.596125 -11.677140 5.956689 -40.779347 -10.736188 -3.289204 -14.825300 -26.333698 4.650361 0.000000 0.000000 0.000000 28.292468 7.333294 0.807779 51.459697 20.423497 2.264632 11.832330 26.457424 3.436613 0.000000 0.000000 0.000000 
0.087483 0.925984 -0.049525 2.371242 -25.214784 -9.623109 3.042444 0.936300 7.095702 -9.831073 2.249139 4.818274 3.539021 8.050142 4.006380 0.000000 0.000000 0.000000 -13.823767 1.249252 1.432215 5.980979 -0.088344 11.239104 -5.911047 -15.255645 5.324588 0.000000 0.000000 0.000000 4.921919 -0.323324 27.743370 -10.209692 2.865745 -25.526301 -3.382337 8.633685 21.557348 14.252235 -5.386278 -34.582061 0.000000 0.000000 0.000000 -17.248862 -11.638461 6.092098 -40.473772 -10.453910 -3.367601 -14.668701 -26.738614 4.698211 0.000000 0.000000 0.000000 29.265045 7.387265 0.569887 50.097231 20.080235 2.147351 11.451617 26.204014 3.277401 0.000000 0.000000 0.000000 
